<?xml version="1.0" encoding="UTF-8" standalone="no"?>
<svg width="31.75mm" height="10.8479mm"
 xmlns="http://www.w3.org/2000/svg" xmlns:xlink="http://www.w3.org/1999/xlink"  version="1.2" baseProfile="tiny">
<desc>Created by EvoPdf</desc>
<defs>
</defs>
<g fill="none" stroke="black" stroke-width="1" fill-rule="evenodd" stroke-linecap="square" stroke-linejoin="bevel" >

<g fill="#000000" fill-opacity="1" stroke="#000000" stroke-opacity="1" stroke-width="1" stroke-linecap="square" stroke-linejoin="miter" stroke-miterlimit="2" transform="matrix(1,0,0,1,0,0)"
>
</g>

<g fill="#000000" fill-opacity="1" stroke="#000000" stroke-opacity="1" stroke-width="1" stroke-linecap="square" stroke-linejoin="miter" stroke-miterlimit="2" transform="matrix(1,0,0,1,0,0)"
>
</g>

<g fill="#000000" fill-opacity="1" stroke="#000000" stroke-opacity="1" stroke-width="1" stroke-linecap="square" stroke-linejoin="miter" stroke-miterlimit="2" transform="matrix(1,0,0,1,0,0)"
>
</g>

<g fill="#000000" fill-opacity="1" stroke="#000000" stroke-opacity="1" stroke-width="1" stroke-linecap="square" stroke-linejoin="miter" stroke-miterlimit="2" transform="matrix(1,0,0,1,0,0)"
>
</g>

<g fill="#000000" fill-opacity="1" stroke="#000000" stroke-opacity="1" stroke-width="1" stroke-linecap="square" stroke-linejoin="miter" stroke-miterlimit="2" transform="matrix(0.642896,0,0,0.642896,8,15.3942)"
>
</g>

<g fill="#000000" fill-opacity="1" stroke="none" transform="matrix(0.642896,0,0,0.642896,8,15.3942)"
>
<path vector-effect="none" fill-rule="nonzero" d="M24.306,9.461 C24.306,4.29 19.761,0 14.228,0 C8.694,0 4.148,4.292 4.148,9.46 L4.148,12.485 L0,12.485 L0,34.235 L14.225,40.771 L28.458,34.237 L28.458,12.581 L24.31,12.581 L24.307,9.46 L24.306,9.461 M9.286,9.461 C9.286,7.023 11.461,5.072 14.228,5.072 C16.995,5.072 19.168,7.023 19.168,9.461 L19.168,12.485 L9.287,12.485 L9.287,9.461 L9.286,9.461 M22.726,30.725 L14.224,34.629 L5.725,30.728 L5.725,17.655 L22.725,17.655 L22.725,30.725 L22.726,30.725"/>
</g>

<g fill="#000000" fill-opacity="1" stroke="#000000" stroke-opacity="1" stroke-width="1" stroke-linecap="square" stroke-linejoin="miter" stroke-miterlimit="2" transform="matrix(0.642896,0,0,0.642896,8,15.3942)"
>
</g>

<g fill="#000000" fill-opacity="1" stroke="none" transform="matrix(0.642896,0,0,0.642896,8,15.3942)"
>
<path vector-effect="none" fill-rule="nonzero" d="M40.019,12.485 L57.905,12.485 L57.905,17.655 L51.778,17.655 L51.778,34.333 L46.047,34.333 L46.047,17.655 L40.019,17.655 L40.019,12.485 M78.46,19.8 C78.46,15.41 75.396,12.582 70.851,12.582 L60.474,12.582 L60.474,34.332 L66.206,34.332 L66.206,27.018 L68.38,27.018 L72.431,34.332 L79.058,34.332 L74.216,26.238 C76.286,25.458 78.46,23.408 78.46,19.8 L78.46,19.8 M70.164,21.946 L66.206,21.946 L66.206,17.556 L70.159,17.556 C71.641,17.556 72.629,18.435 72.629,19.703 C72.629,21.068 71.641,21.946 70.159,21.946 L70.164,21.946 M81.127,12.485 L97.136,12.485 L97.136,17.557 L86.858,17.557 L86.858,20.776 L96.84,20.776 L96.84,25.75 L86.858,25.75 L86.858,29.26 L97.136,29.26 L97.136,34.333 L81.127,34.333 L81.127,12.485 M129.252,12.191 C122.533,12.191 117.792,16.971 117.792,23.409 C117.792,29.846 122.631,34.629 129.252,34.629 C135.873,34.629 140.814,29.85 140.814,23.412 C140.814,16.974 135.972,12.192 129.252,12.192 L129.252,12.191 M129.252,29.554 C125.893,29.554 123.619,27.018 123.619,23.414 C123.619,19.707 125.893,17.272 129.252,17.272 C132.612,17.272 134.984,19.809 134.984,23.413 C134.984,27.018 132.612,29.553 129.252,29.553 L129.252,29.554 M156.922,26.238 C158.996,25.458 161.172,23.408 161.172,19.8 C161.172,15.41 158.108,12.582 153.562,12.582 L143.187,12.582 L143.187,34.332 L148.918,34.332 L148.918,27.018 L151.096,27.018 L155.147,34.332 L161.768,34.332 L156.922,26.238 M152.87,21.946 L148.918,21.946 L148.918,17.556 L152.87,17.556 C154.354,17.556 155.341,18.435 155.341,19.703 C155.341,21.068 154.354,21.946 152.87,21.946 M99.903,12.485 L116.801,12.485 L116.801,16.874 L107.611,29.164 L116.801,29.164 L116.801,34.333 L99.903,34.333 L99.903,29.943 L109.093,17.655 L99.903,17.655 L99.903,12.485"/>
</g>

<g fill="#000000" fill-opacity="1" stroke="#000000" stroke-opacity="1" stroke-width="1" stroke-linecap="square" stroke-linejoin="miter" stroke-miterlimit="2" transform="matrix(0.642896,0,0,0.642896,8,15.3942)"
>
</g>

<g fill="#000000" fill-opacity="1" stroke="#000000" stroke-opacity="1" stroke-width="1" stroke-linecap="square" stroke-linejoin="miter" stroke-miterlimit="2" transform="matrix(0.642896,0,0,0.642896,8,15.3942)"
>
</g>

<g fill="#000000" fill-opacity="1" stroke="#000000" stroke-opacity="1" stroke-width="1" stroke-linecap="square" stroke-linejoin="miter" stroke-miterlimit="2" transform="matrix(1,0,0,1,0,0)"
>
</g>

<g fill="#000000" fill-opacity="1" stroke="#000000" stroke-opacity="1" stroke-width="1" stroke-linecap="square" stroke-linejoin="miter" stroke-miterlimit="2" transform="matrix(1,0,0,1,0,0)"
>
</g>

<g fill="#000000" fill-opacity="1" stroke="#000000" stroke-opacity="1" stroke-width="1" stroke-linecap="square" stroke-linejoin="miter" stroke-miterlimit="2" transform="matrix(1,0,0,1,0,0)"
>
</g>

<g fill="#000000" fill-opacity="1" stroke="#000000" stroke-opacity="1" stroke-width="1" stroke-linecap="square" stroke-linejoin="miter" stroke-miterlimit="2" transform="matrix(1,0,0,1,0,0)"
>
</g>

<g fill="#000000" fill-opacity="1" stroke="#000000" stroke-opacity="1" stroke-width="1" stroke-linecap="square" stroke-linejoin="miter" stroke-miterlimit="2" transform="matrix(0.642896,0,0,0.642896,8,15.3942)"
>
</g>

<g fill="#000000" fill-opacity="1" stroke="#000000" stroke-opacity="1" stroke-width="1" stroke-linecap="square" stroke-linejoin="miter" stroke-miterlimit="2" transform="matrix(1,0,0,1,0,0)"
>
</g>

<g fill="#000000" fill-opacity="1" stroke="#000000" stroke-opacity="1" stroke-width="1" stroke-linecap="square" stroke-linejoin="miter" stroke-miterlimit="2" transform="matrix(1,0,0,1,0,0)"
>
</g>

<g fill="#000000" fill-opacity="1" stroke="#000000" stroke-opacity="1" stroke-width="1" stroke-linecap="square" stroke-linejoin="miter" stroke-miterlimit="2" transform="matrix(1,0,0,1,0,0)"
>
</g>

<g fill="#000000" fill-opacity="1" stroke="#000000" stroke-opacity="1" stroke-width="1" stroke-linecap="square" stroke-linejoin="miter" stroke-miterlimit="2" transform="matrix(1,0,0,1,0,0)"
>
</g>

<g fill="#000000" fill-opacity="1" stroke="#000000" stroke-opacity="1" stroke-width="1" stroke-linecap="square" stroke-linejoin="miter" stroke-miterlimit="2" transform="matrix(1,0,0,1,0,0)"
>
</g>

<g fill="#000000" fill-opacity="1" stroke="#000000" stroke-opacity="1" stroke-width="1" stroke-linecap="square" stroke-linejoin="miter" stroke-miterlimit="2" transform="matrix(1,0,0,1,0,0)"
>
</g>
</g>
</svg>
